ffmpeg started on 2025-05-12 at 18:08:28
Report written to "D:\Convert\FFMetrics\reports\psnr_report-6.txt"
Log level: 32
Command line:
ffmpeg -hide_banner -nostdin -i "G:\\\xc0\xed\xe8\xec\xe5\\\xce\xed\xe3\xee\xe8\xed\xe3\xe8\\!_35_\xcb\xe5\xf2\xee_2024\\DreamCast\\\xce\xf2\xf0\xff\xe4 \xf1\xe0\xec\xee\xf3\xe1\xe8\xe9\xf6 \xe8\xe7 \xe4\xf0\xf3\xe3\xee\xe3\xee \xec\xe8\xf0\xe0\\[DC] Isekai Suicide Squad - 02_Telegram_HEVC.mkv" -i "G:\\\xc0\xed\xe8\xec\xe5\\\xce\xed\xe3\xee\xe8\xed\xe3\xe8\\!_35_\xcb\xe5\xf2\xee_2024\\DreamCast\\\xce\xf2\xf0\xff\xe4 \xf1\xe0\xec\xee\xf3\xe1\xe8\xe9\xf6 \xe8\xe7 \xe4\xf0\xf3\xe3\xee\xe3\xee \xec\xe8\xf0\xe0\\[DC] Isekai Suicide Squad - 02_Telegram.mp4" -lavfi "[0:v]settb=AVTB,setpts=PTS-STARTPTS,format=pix_fmts=yuv420p10,fps=24000/1001,scale=1920:1080:flags=bicubic[main];[1:v]settb=AVTB,setpts=PTS-STARTPTS,format=pix_fmts=yuv420p,fps=24000/1001,scale=1920:1080:flags=bicubic[ref];[main][ref]psnr=eof_action=endall:stats_file='D\\:/Convert/FFMetrics/logs/psnr_logfile-6.txt'" -f null -
Input #0, matroska,webm, from 'G:\Аниме\Онгоинги\!_35_Лето_2024\DreamCast\Отряд самоубийц из другого мира\[DC] Isekai Suicide Squad - 02_Telegram_HEVC.mkv':
  Metadata:
    COMPATIBLE_BRANDS: isomiso2avc1mp41
    MAJOR_BRAND     : isom
    MINOR_VERSION   : 512
    ENCODER         : Lavf61.7.100
  Duration: 00:24:17.96, start: -0.021000, bitrate: 1467 kb/s
  Stream #0:0: Video: hevc (Main 10), yuv420p10le(tv, bt709, progressive), 1920x1080 [SAR 1:1 DAR 16:9], 23.98 fps, 23.98 tbr, 1k tbn (default)
      Metadata:
        HANDLER_NAME    : VideoHandler
        VENDOR_ID       : [0][0][0][0]
        ENCODER         : Lavc61.19.100 libx265
        BPS             : 1270403
        DURATION        : 00:24:17.872708333
        NUMBER_OF_FRAMES: 34954
        NUMBER_OF_BYTES : 231510645
        _STATISTICS_WRITING_APP: mkvpropedit v66.0.0 ('Josie') 64-bit
        _STATISTICS_WRITING_DATE_UTC: 2025-05-09 12:54:00
        _STATISTICS_TAGS: BPS DURATION NUMBER_OF_FRAMES NUMBER_OF_BYTES
  Stream #0:1: Audio: aac (LC), 48000 Hz, stereo, fltp (default)
      Metadata:
        HANDLER_NAME    : SoundHandler
        VENDOR_ID       : [0][0][0][0]
        ENCODER         : Lavc61.19.100 aac
        BPS             : 192757
        DURATION        : 00:24:17.962000000
        NUMBER_OF_FRAMES: 68343
        NUMBER_OF_BYTES : 35129141
        _STATISTICS_WRITING_APP: mkvpropedit v66.0.0 ('Josie') 64-bit
        _STATISTICS_WRITING_DATE_UTC: 2025-05-09 12:54:00
        _STATISTICS_TAGS: BPS DURATION NUMBER_OF_FRAMES NUMBER_OF_BYTES
Input #1, mov,mp4,m4a,3gp,3g2,mj2, from 'G:\Аниме\Онгоинги\!_35_Лето_2024\DreamCast\Отряд самоубийц из другого мира\[DC] Isekai Suicide Squad - 02_Telegram.mp4':
  Metadata:
    major_brand     : isom
    minor_version   : 512
    compatible_brands: isomiso2avc1mp41
    encoder         : Lavf60.16.100
  Duration: 00:24:17.94, start: 0.000000, bitrate: 3858 kb/s
  Stream #1:0[0x1](und): Video: h264 (High) (avc1 / 0x31637661), yuv420p(tv, bt709, progressive), 1920x1080 [SAR 1:1 DAR 16:9], 3710 kb/s, 23.98 fps, 23.98 tbr, 24k tbn (default)
      Metadata:
        handler_name    : VideoHandler
        vendor_id       : [0][0][0][0]
        encoder         : Lavc60.31.102 h264_qsv
  Stream #1:1[0x2](und): Audio: aac (HE-AACv2) (mp4a / 0x6134706D), 48000 Hz, stereo, fltp, 144 kb/s (default)
      Metadata:
        handler_name    : SoundHandler
        vendor_id       : [0][0][0][0]
Stream mapping:
  Stream #0:0 (hevc) -> settb:default
  Stream #1:0 (h264) -> settb:default
  psnr:default -> Stream #0:0 (wrapped_avframe)
  Stream #0:1 -> #0:1 (aac (native) -> pcm_s16le (native))
Output #0, null, to 'pipe:':
  Metadata:
    COMPATIBLE_BRANDS: isomiso2avc1mp41
    MAJOR_BRAND     : isom
    MINOR_VERSION   : 512
    encoder         : Lavf61.7.100
  Stream #0:0: Video: wrapped_avframe, yuv420p10le(tv, bt709, progressive), 1920x1080 [SAR 1:1 DAR 16:9], q=2-31, 200 kb/s, 23.98 fps, 23.98 tbn
      Metadata:
        encoder         : Lavc61.19.100 wrapped_avframe
  Stream #0:1: Audio: pcm_s16le, 48000 Hz, stereo, s16, 1536 kb/s (default)
      Metadata:
        HANDLER_NAME    : SoundHandler
        VENDOR_ID       : [0][0][0][0]
        _STATISTICS_TAGS: BPS DURATION NUMBER_OF_FRAMES NUMBER_OF_BYTES
        BPS             : 192757
        DURATION        : 00:24:17.962000000
        NUMBER_OF_FRAMES: 68343
        NUMBER_OF_BYTES : 35129141
        _STATISTICS_WRITING_APP: mkvpropedit v66.0.0 ('Josie') 64-bit
        _STATISTICS_WRITING_DATE_UTC: 2025-05-09 12:54:00
        encoder         : Lavc61.19.100 pcm_s16le
frame=  176 fps=0.0 q=-0.0 size=N/A time=00:00:07.34 bitrate=N/A speed=14.5x    frame=  378 fps=367 q=-0.0 size=N/A time=00:00:15.76 bitrate=N/A speed=15.3x    frame=  614 fps=399 q=-0.0 size=N/A time=00:00:25.60 bitrate=N/A speed=16.7x    frame=  854 fps=414 q=-0.0 size=N/A time=00:00:35.61 bitrate=N/A speed=17.3x    frame= 1089 fps=424 q=-0.0 size=N/A time=00:00:45.42 bitrate=N/A speed=17.7x    frame= 1282 fps=415 q=-0.0 size=N/A time=00:00:53.47 bitrate=N/A speed=17.3x    frame= 1462 fps=407 q=-0.0 size=N/A time=00:01:00.97 bitrate=N/A speed=  17x    frame= 1665 fps=404 q=-0.0 size=N/A time=00:01:09.44 bitrate=N/A speed=16.9x    frame= 1816 fps=393 q=-0.0 size=N/A time=00:01:15.74 bitrate=N/A speed=16.4x    frame= 2023 fps=393 q=-0.0 size=N/A time=00:01:24.37 bitrate=N/A speed=16.4x    frame= 2287 fps=403 q=-0.0 size=N/A time=00:01:35.38 bitrate=N/A speed=16.8x    frame= 2546 fps=412 q=-0.0 size=N/A time=00:01:46.18 bitrate=N/A speed=17.2x    frame= 2798 fps=418 q=-0.0 size=N/A time=00:01:56.69 bitrate=N/A speed=17.4x    frame= 3048 fps=423 q=-0.0 size=N/A time=00:02:07.12 bitrate=N/A speed=17.6x    frame= 3261 fps=422 q=-0.0 size=N/A time=00:02:16.01 bitrate=N/A speed=17.6x    frame= 3489 fps=423 q=-0.0 size=N/A time=00:02:25.52 bitrate=N/A speed=17.6x    frame= 3739 fps=427 q=-0.0 size=N/A time=00:02:35.94 bitrate=N/A speed=17.8x    frame= 4002 fps=431 q=-0.0 size=N/A time=00:02:46.91 bitrate=N/A speed=  18x    frame= 4251 fps=434 q=-0.0 size=N/A time=00:02:57.30 bitrate=N/A speed=18.1x    frame= 4515 fps=438 q=-0.0 size=N/A time=00:03:08.31 bitrate=N/A speed=18.3x    frame= 4787 fps=442 q=-0.0 size=N/A time=00:03:19.65 bitrate=N/A speed=18.4x    frame= 5030 fps=444 q=-0.0 size=N/A time=00:03:29.79 bitrate=N/A speed=18.5x    frame= 5244 fps=442 q=-0.0 size=N/A time=00:03:38.71 bitrate=N/A speed=18.4x    frame= 5496 fps=444 q=-0.0 size=N/A time=00:03:49.22 bitrate=N/A speed=18.5x    frame= 5753 fps=446 q=-0.0 size=N/A time=00:03:59.94 bitrate=N/A speed=18.6x    frame= 6011 fps=448 q=-0.0 size=N/A time=00:04:10.70 bitrate=N/A speed=18.7x    frame= 6257 fps=449 q=-0.0 size=N/A time=00:04:20.96 bitrate=N/A speed=18.7x    frame= 6482 fps=449 q=-0.0 size=N/A time=00:04:30.35 bitrate=N/A speed=18.7x    frame= 6702 fps=448 q=-0.0 size=N/A time=00:04:39.52 bitrate=N/A speed=18.7x    frame= 6952 fps=449 q=-0.0 size=N/A time=00:04:49.95 bitrate=N/A speed=18.7x    frame= 7195 fps=450 q=-0.0 size=N/A time=00:05:00.09 bitrate=N/A speed=18.8x    frame= 7429 fps=450 q=-0.0 size=N/A time=00:05:09.85 bitrate=N/A speed=18.8x    frame= 7606 fps=447 q=-0.0 size=N/A time=00:05:17.23 bitrate=N/A speed=18.6x    frame= 7824 fps=446 q=-0.0 size=N/A time=00:05:26.32 bitrate=N/A speed=18.6x    frame= 8032 fps=445 q=-0.0 size=N/A time=00:05:35.00 bitrate=N/A speed=18.6x    frame= 8271 fps=445 q=-0.0 size=N/A time=00:05:44.96 bitrate=N/A speed=18.6x    frame= 8496 fps=445 q=-0.0 size=N/A time=00:05:54.35 bitrate=N/A speed=18.6x    frame= 8734 fps=445 q=-0.0 size=N/A time=00:06:04.28 bitrate=N/A speed=18.6x    frame= 8975 fps=446 q=-0.0 size=N/A time=00:06:14.33 bitrate=N/A speed=18.6x    frame= 9221 fps=447 q=-0.0 size=N/A time=00:06:24.59 bitrate=N/A speed=18.6x    frame= 9421 fps=445 q=-0.0 size=N/A time=00:06:32.93 bitrate=N/A speed=18.6x    frame= 9678 fps=447 q=-0.0 size=N/A time=00:06:43.65 bitrate=N/A speed=18.6x    frame= 9899 fps=446 q=-0.0 size=N/A time=00:06:52.87 bitrate=N/A speed=18.6x    frame=10128 fps=446 q=-0.0 size=N/A time=00:07:02.42 bitrate=N/A speed=18.6x    frame=10384 fps=447 q=-0.0 size=N/A time=00:07:13.09 bitrate=N/A speed=18.7x    frame=10616 fps=448 q=-0.0 size=N/A time=00:07:22.77 bitrate=N/A speed=18.7x    frame=10859 fps=448 q=-0.0 size=N/A time=00:07:32.91 bitrate=N/A speed=18.7x    frame=11110 fps=449 q=-0.0 size=N/A time=00:07:43.37 bitrate=N/A speed=18.7x    frame=11361 fps=449 q=-0.0 size=N/A time=00:07:53.89 bitrate=N/A speed=18.7x    frame=11611 fps=450 q=-0.0 size=N/A time=00:08:04.27 bitrate=N/A speed=18.8x    frame=11858 fps=451 q=-0.0 size=N/A time=00:08:14.57 bitrate=N/A speed=18.8x    frame=12091 fps=451 q=-0.0 size=N/A time=00:08:24.29 bitrate=N/A speed=18.8x    frame=12323 fps=451 q=-0.0 size=N/A time=00:08:33.97 bitrate=N/A speed=18.8x    frame=12583 fps=452 q=-0.0 size=N/A time=00:08:44.81 bitrate=N/A speed=18.8x    frame=12811 fps=452 q=-0.0 size=N/A time=00:08:54.32 bitrate=N/A speed=18.8x    frame=13050 fps=452 q=-0.0 size=N/A time=00:09:04.29 bitrate=N/A speed=18.8x    frame=13282 fps=452 q=-0.0 size=N/A time=00:09:13.97 bitrate=N/A speed=18.8x    frame=13530 fps=452 q=-0.0 size=N/A time=00:09:24.31 bitrate=N/A speed=18.9x    frame=13766 fps=452 q=-0.0 size=N/A time=00:09:34.15 bitrate=N/A speed=18.9x    frame=13999 fps=452 q=-0.0 size=N/A time=00:09:43.87 bitrate=N/A speed=18.9x    frame=14198 fps=451 q=-0.0 size=N/A time=00:09:52.17 bitrate=N/A speed=18.8x    frame=14427 fps=451 q=-0.0 size=N/A time=00:10:01.72 bitrate=N/A speed=18.8x    frame=14682 fps=452 q=-0.0 size=N/A time=00:10:12.36 bitrate=N/A speed=18.8x    frame=14903 fps=451 q=-0.0 size=N/A time=00:10:21.57 bitrate=N/A speed=18.8x    frame=15152 fps=452 q=-0.0 size=N/A time=00:10:31.96 bitrate=N/A speed=18.8x    frame=15383 fps=452 q=-0.0 size=N/A time=00:10:41.59 bitrate=N/A speed=18.8x    frame=15629 fps=452 q=-0.0 size=N/A time=00:10:51.85 bitrate=N/A speed=18.9x    frame=15870 fps=453 q=-0.0 size=N/A time=00:11:01.91 bitrate=N/A speed=18.9x    frame=16144 fps=454 q=-0.0 size=N/A time=00:11:13.33 bitrate=N/A speed=18.9x    frame=16396 fps=454 q=-0.0 size=N/A time=00:11:23.84 bitrate=N/A speed=18.9x    frame=16618 fps=454 q=-0.0 size=N/A time=00:11:33.10 bitrate=N/A speed=18.9x    frame=16856 fps=454 q=-0.0 size=N/A time=00:11:43.03 bitrate=N/A speed=18.9x    frame=17112 fps=455 q=-0.0 size=N/A time=00:11:53.71 bitrate=N/A speed=  19x    frame=17352 fps=455 q=-0.0 size=N/A time=00:12:03.72 bitrate=N/A speed=  19x    frame=17590 fps=455 q=-0.0 size=N/A time=00:12:13.64 bitrate=N/A speed=  19x    frame=17803 fps=454 q=-0.0 size=N/A time=00:12:22.53 bitrate=N/A speed=18.9x    frame=18030 fps=454 q=-0.0 size=N/A time=00:12:32.00 bitrate=N/A speed=18.9x    frame=18264 fps=454 q=-0.0 size=N/A time=00:12:41.76 bitrate=N/A speed=18.9x    frame=18478 fps=453 q=-0.0 size=N/A time=00:12:50.68 bitrate=N/A speed=18.9x    frame=18665 fps=452 q=-0.0 size=N/A time=00:12:58.48 bitrate=N/A speed=18.9x    frame=18890 fps=452 q=-0.0 size=N/A time=00:13:07.87 bitrate=N/A speed=18.9x    frame=19112 fps=452 q=-0.0 size=N/A time=00:13:17.12 bitrate=N/A speed=18.8x    frame=19330 fps=452 q=-0.0 size=N/A time=00:13:26.22 bitrate=N/A speed=18.8x    frame=19527 fps=451 q=-0.0 size=N/A time=00:13:34.43 bitrate=N/A speed=18.8x    frame=19755 fps=451 q=-0.0 size=N/A time=00:13:43.94 bitrate=N/A speed=18.8x    frame=20003 fps=451 q=-0.0 size=N/A time=00:13:54.29 bitrate=N/A speed=18.8x    frame=20258 fps=451 q=-0.0 size=N/A time=00:14:04.92 bitrate=N/A speed=18.8x    frame=20495 fps=452 q=-0.0 size=N/A time=00:14:14.81 bitrate=N/A speed=18.8x    frame=20726 fps=452 q=-0.0 size=N/A time=00:14:24.44 bitrate=N/A speed=18.8x    frame=20958 fps=452 q=-0.0 size=N/A time=00:14:34.12 bitrate=N/A speed=18.8x    frame=21215 fps=452 q=-0.0 size=N/A time=00:14:44.84 bitrate=N/A speed=18.9x    frame=21442 fps=452 q=-0.0 size=N/A time=00:14:54.31 bitrate=N/A speed=18.8x    frame=21686 fps=452 q=-0.0 size=N/A time=00:15:04.48 bitrate=N/A speed=18.9x    frame=21928 fps=452 q=-0.0 size=N/A time=00:15:14.58 bitrate=N/A speed=18.9x    frame=22187 fps=453 q=-0.0 size=N/A time=00:15:25.38 bitrate=N/A speed=18.9x    frame=22424 fps=453 q=-0.0 size=N/A time=00:15:35.26 bitrate=N/A speed=18.9x    frame=22657 fps=453 q=-0.0 size=N/A time=00:15:44.98 bitrate=N/A speed=18.9x    frame=22896 fps=453 q=-0.0 size=N/A time=00:15:54.95 bitrate=N/A speed=18.9x    frame=23146 fps=453 q=-0.0 size=N/A time=00:16:05.38 bitrate=N/A speed=18.9x    frame=23375 fps=453 q=-0.0 size=N/A time=00:16:14.93 bitrate=N/A speed=18.9x    frame=23608 fps=453 q=-0.0 size=N/A time=00:16:24.65 bitrate=N/A speed=18.9x    frame=23837 fps=453 q=-0.0 size=N/A time=00:16:34.24 bitrate=N/A speed=18.9x    frame=24095 fps=453 q=-0.0 size=N/A time=00:16:44.96 bitrate=N/A speed=18.9x    frame=24333 fps=454 q=-0.0 size=N/A time=00:16:54.88 bitrate=N/A speed=18.9x    frame=24556 fps=453 q=-0.0 size=N/A time=00:17:04.18 bitrate=N/A speed=18.9x    frame=24782 fps=453 q=-0.0 size=N/A time=00:17:13.61 bitrate=N/A speed=18.9x    frame=25031 fps=453 q=-0.0 size=N/A time=00:17:24.00 bitrate=N/A speed=18.9x    frame=25258 fps=453 q=-0.0 size=N/A time=00:17:33.46 bitrate=N/A speed=18.9x    frame=25519 fps=454 q=-0.0 size=N/A time=00:17:44.35 bitrate=N/A speed=18.9x    frame=25767 fps=454 q=-0.0 size=N/A time=00:17:54.69 bitrate=N/A speed=18.9x    frame=25998 fps=454 q=-0.0 size=N/A time=00:18:04.33 bitrate=N/A speed=18.9x    frame=26246 fps=454 q=-0.0 size=N/A time=00:18:14.67 bitrate=N/A speed=18.9x    frame=26478 fps=454 q=-0.0 size=N/A time=00:18:24.35 bitrate=N/A speed=18.9x    frame=26704 fps=454 q=-0.0 size=N/A time=00:18:33.77 bitrate=N/A speed=18.9x    frame=26929 fps=454 q=-0.0 size=N/A time=00:18:43.16 bitrate=N/A speed=18.9x    frame=27164 fps=454 q=-0.0 size=N/A time=00:18:52.96 bitrate=N/A speed=18.9x    frame=27400 fps=454 q=-0.0 size=N/A time=00:19:02.80 bitrate=N/A speed=18.9x    frame=27615 fps=454 q=-0.0 size=N/A time=00:19:11.77 bitrate=N/A speed=18.9x    frame=27848 fps=454 q=-0.0 size=N/A time=00:19:21.49 bitrate=N/A speed=18.9x    frame=28076 fps=454 q=-0.0 size=N/A time=00:19:31.00 bitrate=N/A speed=18.9x    frame=28295 fps=453 q=-0.0 size=N/A time=00:19:40.13 bitrate=N/A speed=18.9x    frame=28517 fps=453 q=-0.0 size=N/A time=00:19:49.39 bitrate=N/A speed=18.9x    frame=28717 fps=453 q=-0.0 size=N/A time=00:19:57.73 bitrate=N/A speed=18.9x    frame=28936 fps=452 q=-0.0 size=N/A time=00:20:06.87 bitrate=N/A speed=18.9x    frame=29150 fps=452 q=-0.0 size=N/A time=00:20:15.79 bitrate=N/A speed=18.8x    frame=29355 fps=452 q=-0.0 size=N/A time=00:20:24.34 bitrate=N/A speed=18.8x    frame=29567 fps=451 q=-0.0 size=N/A time=00:20:33.19 bitrate=N/A speed=18.8x    frame=29772 fps=451 q=-0.0 size=N/A time=00:20:41.74 bitrate=N/A speed=18.8x    frame=30002 fps=451 q=-0.0 size=N/A time=00:20:51.33 bitrate=N/A speed=18.8x    frame=30208 fps=450 q=-0.0 size=N/A time=00:20:59.92 bitrate=N/A speed=18.8x    frame=30388 fps=450 q=-0.0 size=N/A time=00:21:07.43 bitrate=N/A speed=18.8x    frame=30571 fps=449 q=-0.0 size=N/A time=00:21:15.06 bitrate=N/A speed=18.7x    frame=30773 fps=448 q=-0.0 size=N/A time=00:21:23.49 bitrate=N/A speed=18.7x    frame=31014 fps=449 q=-0.0 size=N/A time=00:21:33.54 bitrate=N/A speed=18.7x    frame=31293 fps=449 q=-0.0 size=N/A time=00:21:45.17 bitrate=N/A speed=18.7x    frame=31552 fps=450 q=-0.0 size=N/A time=00:21:55.98 bitrate=N/A speed=18.8x    frame=31818 fps=450 q=-0.0 size=N/A time=00:22:07.07 bitrate=N/A speed=18.8x    frame=32060 fps=450 q=-0.0 size=N/A time=00:22:17.16 bitrate=N/A speed=18.8x    frame=32278 fps=450 q=-0.0 size=N/A time=00:22:26.26 bitrate=N/A speed=18.8x    frame=32499 fps=450 q=-0.0 size=N/A time=00:22:35.47 bitrate=N/A speed=18.8x    frame=32754 fps=450 q=-0.0 size=N/A time=00:22:46.11 bitrate=N/A speed=18.8x    frame=32928 fps=449 q=-0.0 size=N/A time=00:22:53.37 bitrate=N/A speed=18.7x    frame=33127 fps=449 q=-0.0 size=N/A time=00:23:01.67 bitrate=N/A speed=18.7x    frame=33308 fps=448 q=-0.0 size=N/A time=00:23:09.22 bitrate=N/A speed=18.7x    frame=33496 fps=448 q=-0.0 size=N/A time=00:23:17.06 bitrate=N/A speed=18.7x    frame=33671 fps=447 q=-0.0 size=N/A time=00:23:24.36 bitrate=N/A speed=18.6x    frame=33859 fps=447 q=-0.0 size=N/A time=00:23:32.20 bitrate=N/A speed=18.6x    frame=34056 fps=446 q=-0.0 size=N/A time=00:23:40.41 bitrate=N/A speed=18.6x    frame=34229 fps=445 q=-0.0 size=N/A time=00:23:47.63 bitrate=N/A speed=18.6x    frame=34406 fps=445 q=-0.0 size=N/A time=00:23:55.01 bitrate=N/A speed=18.5x    frame=34624 fps=445 q=-0.0 size=N/A time=00:24:04.10 bitrate=N/A speed=18.5x    frame=34849 fps=444 q=-0.0 size=N/A time=00:24:13.49 bitrate=N/A speed=18.5x    [Parsed_psnr_10 @ 000001ec56522b40] PSNR y:46.738025 u:50.700762 v:50.556022 average:47.692056 min:40.238120 max:inf
[out#0/null @ 000001ec55980640] video:15019KiB audio:273372KiB subtitle:0KiB other streams:0KiB global headers:0KiB muxing overhead: unknown
frame=34954 fps=444 q=-0.0 Lsize=N/A time=00:24:17.87 bitrate=N/A speed=18.5x    
